<svg width="25" height="25" viewBox="0 0 25 25" fill="none" xmlns="http://www.w3.org/2000/svg">
<g id="system icon/24px/Cart">
<g id="Group">
<path id="Vector" d="M9.29199 21.1399C9.60265 21.1399 9.85449 20.8881 9.85449 20.5774C9.85449 20.2667 9.60265 20.0149 9.29199 20.0149C8.98133 20.0149 8.72949 20.2667 8.72949 20.5774C8.72949 20.8881 8.98133 21.1399 9.29199 21.1399Z" fill="#22262A" stroke="#22262A" stroke-width="2" stroke-miterlimit="10" stroke-linecap="round" stroke-linejoin="round"/>
<path id="Vector_2" d="M17.167 21.1399C17.4777 21.1399 17.7295 20.8881 17.7295 20.5774C17.7295 20.2667 17.4777 20.0149 17.167 20.0149C16.8563 20.0149 16.6045 20.2667 16.6045 20.5774C16.6045 20.8881 16.8563 21.1399 17.167 21.1399Z" fill="#22262A" stroke="#22262A" stroke-width="2" stroke-miterlimit="10" stroke-linecap="round" stroke-linejoin="round"/>
<path id="Vector_3" d="M3.10449 3.13989H5.35449L7.60449 16.6399H18.8545L21.1045 6.51489H6.47949" stroke="#22262A" stroke-width="2" stroke-linecap="round" stroke-linejoin="round"/>
</g>
</g>
</svg>
