<svg width="17" height="18" viewBox="0 0 17 18" fill="none" xmlns="http://www.w3.org/2000/svg">
<path id="cart_2" fill-rule="evenodd" clip-rule="evenodd" d="M13.8084 12.3968C14.2985 12.396 14.7732 12.2251 15.1515 11.9133C15.5297 11.6015 15.7882 11.1682 15.8829 10.687L16.9457 5.37038C17.0072 5.06222 16.9997 4.74423 16.9238 4.43931C16.8479 4.13439 16.7053 3.85011 16.5065 3.6069C16.3076 3.36368 16.0573 3.16753 15.7736 3.03266C15.49 2.89779 15.1799 2.82752 14.8659 2.82686H4.28518V1.76353C4.28518 1.48151 4.1732 1.21107 3.97389 1.01165C3.77459 0.81224 3.50429 0.700195 3.22243 0.700195H1.10651C0.824654 0.700195 0.554323 0.81224 0.35502 1.01165C0.155717 1.21107 0.043766 1.48151 0.043766 1.76353C0.043766 2.04554 0.155717 2.31599 0.35502 2.5154C0.554323 2.71481 0.824654 2.82686 1.10651 2.82686H2.16926V13.4602C1.74847 13.4583 1.33659 13.5814 0.985798 13.8139C0.635007 14.0465 0.361069 14.3779 0.198728 14.7664C0.0363871 15.1548 -0.00706587 15.5827 0.0738633 15.9958C0.154793 16.409 0.356462 16.7888 0.653333 17.0872C0.950204 17.3856 1.32891 17.5891 1.74147 17.6719C2.15404 17.7547 2.58192 17.7132 2.97086 17.5525C3.3598 17.3919 3.69231 17.1192 3.92628 16.7693C4.16026 16.4194 4.28518 16.0078 4.28518 15.5868H11.6914C11.6931 16.0054 11.8187 16.4141 12.0524 16.7613C12.286 17.1085 12.6172 17.3787 13.0042 17.5377C13.3912 17.6967 13.8165 17.7374 14.2266 17.6548C14.6367 17.5721 15.0131 17.3696 15.3083 17.0731C15.6036 16.7765 15.8043 16.3991 15.8853 15.9884C15.9663 15.5778 15.9239 15.1523 15.7634 14.7658C15.603 14.3792 15.3316 14.0489 14.9837 13.8165C14.6357 13.5842 14.2268 13.4602 13.8084 13.4602H4.28518V12.3968H13.8084ZM14.8712 4.95352L13.8084 10.2702H4.28518V4.95352H14.8659H14.8712Z" fill="#33A0FF"/>
</svg>
