<svg width="151" height="29" viewBox="0 0 151 29" fill="none" xmlns="http://www.w3.org/2000/svg">
<g id="colors">
<g id="Group 24">
<g id="Ellipse 1" opacity="0.5">
<path id="Vector" opacity="0.5" d="M13.4826 27.4169C20.3515 27.4169 25.92 21.7041 25.92 14.657C25.92 7.60981 20.3515 1.89697 13.4826 1.89697C6.61358 1.89697 1.04517 7.60981 1.04517 14.657C1.04517 21.7041 6.61358 27.4169 13.4826 27.4169Z" stroke="#006CFF" stroke-width="2" strokeLinejoin="round"/>
</g>
<path id="Ellipse 1 copy" d="M13.4828 23.1637C18.0621 23.1637 21.7744 19.3551 21.7744 14.657C21.7744 9.95895 18.0621 6.15039 13.4828 6.15039C8.90345 6.15039 5.19116 9.95895 5.19116 14.657C5.19116 19.3551 8.90345 23.1637 13.4828 23.1637Z" fill="#006CFF"/>
</g>
<path id="Ellipse 1 copy 2" d="M54.9412 25.2903C60.6654 25.2903 65.3057 20.5296 65.3057 14.657C65.3057 8.78439 60.6654 4.02368 54.9412 4.02368C49.217 4.02368 44.5767 8.78439 44.5767 14.657C44.5767 20.5296 49.217 25.2903 54.9412 25.2903Z" fill="#FC3E39"/>
<path id="Ellipse 1 copy 3" d="M97.4358 25.2903C103.16 25.2903 107.8 20.5296 107.8 14.657C107.8 8.78439 103.16 4.02368 97.4358 4.02368C91.7117 4.02368 87.0713 8.78439 87.0713 14.657C87.0713 20.5296 91.7117 25.2903 97.4358 25.2903Z" fill="#171717"/>
<path id="Ellipse 1 copy 4" d="M139.93 25.2903C145.654 25.2903 150.295 20.5296 150.295 14.657C150.295 8.78439 145.654 4.02368 139.93 4.02368C134.206 4.02368 129.566 8.78439 129.566 14.657C129.566 20.5296 134.206 25.2903 139.93 25.2903Z" fill="#FFF600"/>
</g>
</svg>
