<svg width="8" height="16" viewBox="0 0 8 16" fill="none" xmlns="http://www.w3.org/2000/svg">
<path id="facebook" d="M0.432549 8.48427H2.09055V15.3123C2.09055 15.377 2.11626 15.439 2.16202 15.4848C2.20778 15.5306 2.26984 15.5563 2.33455 15.5563H5.14655C5.21126 15.5563 5.27332 15.5306 5.31908 15.4848C5.36484 15.439 5.39055 15.377 5.39055 15.3123V8.51627H7.29755C7.35734 8.51617 7.41503 8.49412 7.45964 8.45431C7.50425 8.41449 7.53269 8.35967 7.53955 8.30027L7.82954 5.78627C7.83349 5.75212 7.83018 5.71753 7.81982 5.68475C7.80947 5.65198 7.7923 5.62176 7.76945 5.59608C7.74661 5.5704 7.71859 5.54984 7.68724 5.53574C7.65589 5.52164 7.62191 5.51432 7.58754 5.51427H5.38754V3.93927C5.38754 3.46427 5.64355 3.22327 6.14755 3.22327H7.58354C7.64825 3.22327 7.71031 3.19756 7.75607 3.1518C7.80183 3.10604 7.82755 3.04398 7.82755 2.97927V0.67227C7.82808 0.607898 7.80316 0.545923 7.75821 0.499846C7.71326 0.453768 7.6519 0.427323 7.58754 0.42627L5.60655 0.42627H5.51555C4.60333 0.429489 3.72284 0.761447 3.03555 1.36127C2.71124 1.64469 2.4624 2.00424 2.31142 2.40762C2.16043 2.81099 2.11203 3.24556 2.17055 3.67227V5.51527H0.429543C0.36483 5.51527 0.30277 5.54098 0.257011 5.58674C0.211253 5.63249 0.185547 5.69456 0.185547 5.75927V8.24027C0.185544 8.27257 0.19195 8.30454 0.204399 8.33434C0.216848 8.36414 0.235096 8.39118 0.258072 8.41387C0.281048 8.43657 0.308299 8.45448 0.338249 8.46656C0.3682 8.47865 0.400254 8.48467 0.432549 8.48427Z" fill="#385C8E"/>
</svg>
