<svg width="10" height="17" viewBox="0 0 10 17" fill="none" xmlns="http://www.w3.org/2000/svg">
<path id="facebook" d="M1.23589 8.84176H2.99791V16.1022C2.99791 16.171 3.02524 16.237 3.07387 16.2856C3.1225 16.3343 3.18845 16.3616 3.25722 16.3616H6.24565C6.31442 16.3616 6.38037 16.3343 6.429 16.2856C6.47763 16.237 6.50496 16.171 6.50496 16.1022V8.87578H8.5316C8.59515 8.87568 8.65646 8.85224 8.70387 8.8099C8.75128 8.76756 8.7815 8.70927 8.78879 8.6461L9.09698 5.97289C9.10117 5.93658 9.09766 5.8998 9.08665 5.86495C9.07564 5.8301 9.0574 5.79796 9.03312 5.77066C9.00884 5.74335 8.97906 5.72149 8.94575 5.70649C8.91243 5.6915 8.87632 5.68372 8.83979 5.68366H6.50176V4.00892C6.50176 3.50384 6.77384 3.24757 7.30946 3.24757H8.83554C8.90432 3.24757 8.97027 3.22024 9.0189 3.17158C9.06753 3.12293 9.09485 3.05693 9.09485 2.98812V0.535017C9.09542 0.466569 9.06894 0.400669 9.02117 0.351673C8.97339 0.302678 8.90819 0.274557 8.83979 0.273438L6.73451 0.273438H6.6378C5.66835 0.27686 4.73262 0.629842 4.00221 1.26765C3.65754 1.56902 3.39309 1.95134 3.23264 2.38026C3.07218 2.80919 3.02074 3.27127 3.08293 3.72501V5.68473H1.23269C1.16392 5.68473 1.09797 5.71206 1.04934 5.76072C1.00071 5.80938 0.973389 5.87537 0.973389 5.94418V8.5823C0.973386 8.61665 0.980193 8.65065 0.993424 8.68234C1.00665 8.71402 1.02605 8.74277 1.05046 8.7669C1.07488 8.79104 1.10384 8.81008 1.13567 8.82293C1.1675 8.83578 1.20157 8.84218 1.23589 8.84176Z" fill="white"/>
</svg>
