<svg width="50" height="50" viewBox="0 0 50 50" fill="none" xmlns="http://www.w3.org/2000/svg">
<g id="Group 5">
<path id="hearts" fill-rule="evenodd" clip-rule="evenodd" d="M27.8074 19.8901C28.4212 19.8911 29.0217 20.0694 29.5367 20.4035C30.0517 20.7377 30.4594 21.2134 30.7107 21.7737C30.9621 22.334 31.0465 22.955 30.9537 23.5621C30.861 24.1691 30.5951 24.7365 30.1879 25.1961C29.6034 25.8554 24.6192 30.5234 24.6192 30.5234C24.6192 30.5234 19.6244 25.8554 19.0399 25.1855C18.5243 24.6057 18.2405 23.8561 18.2428 23.0801C18.2428 22.2341 18.5787 21.4227 19.1766 20.8244C19.7745 20.2262 20.5855 19.8901 21.431 19.8901C22.2766 19.8901 23.0875 20.2262 23.6854 20.8244C24.2833 21.4227 24.6192 22.2341 24.6192 23.0801C24.6192 22.2341 24.9551 21.4227 25.553 20.8244C26.1509 20.2262 26.9619 19.8901 27.8074 19.8901ZM27.8074 17.7634C26.6574 17.7614 25.538 18.1347 24.6192 18.8268C23.5667 18.049 22.2645 17.6871 20.9619 17.8104C19.6592 17.9337 18.4479 18.5336 17.5599 19.4951C16.6718 20.4566 16.1696 21.7121 16.1493 23.0211C16.129 24.3301 16.5922 25.6005 17.45 26.5891C18.0473 27.2739 21.9783 30.9572 23.1686 32.0695C23.5623 32.4379 24.0812 32.6428 24.6203 32.6428C25.1593 32.6428 25.6782 32.4379 26.072 32.0695C27.258 30.9583 31.1731 27.2845 31.7778 26.6008C32.4547 25.8344 32.8962 24.8891 33.0496 23.878C33.203 22.8669 33.0617 21.833 32.6427 20.9002C32.2236 19.9674 31.5445 19.1754 30.6869 18.619C29.8293 18.0627 28.8295 17.7656 27.8074 17.7634Z" fill="#33A0FF"/>
<path id="Rectangle 38" opacity="0.1" d="M44.8294 0.750244H4.4453C2.09756 0.750244 0.194336 2.65452 0.194336 5.00357V45.4102C0.194336 47.7592 2.09756 49.6635 4.4453 49.6635H44.8294C47.1772 49.6635 49.0804 47.7592 49.0804 45.4102V5.00357C49.0804 2.65452 47.1772 0.750244 44.8294 0.750244Z" fill="#33A0FF"/>
</g>
</svg>
