<svg width="40" height="26" viewBox="0 0 40 26" fill="none" xmlns="http://www.w3.org/2000/svg">
<path d="M2.61558 0.593994H37.5885C38.0392 0.603184 38.4679 0.790788 38.7801 1.11597C39.0924 1.44115 39.2626 1.87716 39.2535 2.32788V24.0022C39.2626 24.4529 39.0924 24.8884 38.7801 25.2136C38.4679 25.5388 38.0392 25.7269 37.5885 25.7361H2.61558C2.16486 25.7269 1.73617 25.5388 1.42393 25.2136C1.11169 24.8884 0.941433 24.4529 0.950543 24.0022V2.32788C0.941433 1.87716 1.11169 1.44115 1.42393 1.11597C1.73617 0.790788 2.16486 0.603184 2.61558 0.593994Z" fill="#5870BE"/>
<path d="M17.7056 13.1608C17.706 11.385 18.2329 9.64927 19.2197 8.17296C20.2065 6.69666 21.609 5.54613 23.2496 4.86681C24.8903 4.18749 26.6955 4.00995 28.4371 4.35656C30.1787 4.70316 31.7785 5.55836 33.0341 6.81407C34.2896 8.06979 35.1447 9.66961 35.4911 11.4112C35.8375 13.1529 35.6596 14.9581 34.9801 16.5987C34.3006 18.2393 33.15 19.6414 31.6736 20.628C30.1972 21.6147 28.4613 22.1415 26.6855 22.1417C25.5062 22.1417 24.3383 21.9095 23.2488 21.4581C22.1592 21.0068 21.1692 20.3453 20.3353 19.5113C19.5014 18.6774 18.84 17.6874 18.3888 16.5978C17.9376 15.5081 17.7054 14.3401 17.7056 13.1608Z" fill="#FFAF38"/>
<path d="M12.9262 22.1398C11.3952 22.1397 9.88956 21.748 8.55246 21.0021C7.21536 20.2563 6.09118 19.1808 5.28671 17.8781C4.48225 16.5754 4.02422 15.0888 3.95615 13.5593C3.88807 12.0297 4.21224 10.5079 4.8978 9.13887C5.58336 7.76985 6.60758 6.59923 7.87314 5.7375C9.13869 4.87577 10.6035 4.35171 12.1285 4.21553C13.6535 4.07934 15.1881 4.33532 16.5863 4.95918C17.9845 5.58304 19.2 6.55409 20.1173 7.77998H18.9173V8.38008H20.5302C20.6512 8.57108 20.7653 8.76895 20.8713 8.96895H18.3172V9.56904H21.1602C21.2482 9.76904 21.3273 9.96914 21.3973 10.1691H17.7173V10.7688H21.5853C22.0715 12.5427 22.0045 14.423 21.3933 16.1579H17.7173V16.758H21.1562C21.0662 16.965 20.9693 17.1578 20.8713 17.3488H18.3172V17.9489H20.5233C20.3903 18.1589 20.2513 18.36 20.1103 18.549H18.9173V19.1491H19.6173C18.7745 20.0895 17.7431 20.8418 16.5903 21.3571C15.4375 21.8725 14.189 22.139 12.9262 22.1398Z" fill="#E63737"/>
<path d="M3.07541 14.8128L3.62211 10.5528L4.47062 10.6617L5.09186 13.8074C5.1488 14.1002 5.18963 14.3191 5.21435 14.4641C5.28267 14.3153 5.38744 14.0974 5.52864 13.8103L6.92898 10.9772L7.68741 11.0745L7.14071 15.3345L6.59731 15.2648L7.05488 11.6993L5.35942 15.1059L4.85089 15.0407L4.08421 11.256L3.61881 14.8825L3.07541 14.8128ZM10.046 15.3204C9.83116 15.4602 9.6293 15.5525 9.44043 15.5972C9.25351 15.6421 9.05737 15.6514 8.85202 15.625C8.51301 15.5815 8.26301 15.4658 8.10205 15.2777C7.94133 15.0877 7.8775 14.8639 7.91056 14.6063C7.92996 14.4552 7.98151 14.322 8.06522 14.2067C8.15112 14.0897 8.25413 14.0006 8.37425 13.9392C8.49631 13.878 8.62956 13.8371 8.77402 13.8162C8.88017 13.8023 9.0385 13.796 9.24902 13.7974C9.6778 13.8012 9.99644 13.7811 10.2049 13.737C10.2161 13.6655 10.2229 13.6201 10.2254 13.6008C10.2527 13.3877 10.2226 13.2312 10.135 13.1313C10.0165 12.996 9.82547 12.9114 9.56201 12.8776C9.31598 12.8461 9.12828 12.8663 8.99892 12.9383C8.87175 13.0086 8.76603 13.1496 8.68175 13.3613L8.17927 13.2259C8.25386 13.013 8.35301 12.8465 8.47671 12.7265C8.60066 12.6046 8.76797 12.5207 8.97864 12.4749C9.18956 12.4271 9.42772 12.4203 9.69312 12.4543C9.95659 12.4882 10.1667 12.5466 10.3234 12.6298C10.4801 12.7129 10.5911 12.8069 10.6564 12.9117C10.722 13.0147 10.761 13.1398 10.7736 13.2871C10.7796 13.3785 10.7677 13.5404 10.7379 13.7729L10.6484 14.4703C10.586 14.9565 10.5571 15.2659 10.5618 15.3984C10.5686 15.5293 10.5974 15.658 10.6481 15.7846L10.1018 15.7145C10.0615 15.5991 10.0429 15.4677 10.046 15.3204ZM10.1523 14.1467C9.95255 14.1998 9.65932 14.2291 9.27266 14.2346C9.05365 14.238 8.8971 14.2534 8.80302 14.2807C8.70893 14.308 8.63282 14.3563 8.5747 14.4257C8.51682 14.4931 8.48204 14.5723 8.47035 14.6634C8.45245 14.8028 8.48984 14.9258 8.58252 15.0322C8.67713 15.1389 8.82615 15.2052 9.02956 15.2313C9.23103 15.2572 9.41582 15.2366 9.58392 15.1696C9.75227 15.1006 9.88308 14.9943 9.97633 14.8507C10.0477 14.7398 10.0981 14.569 10.1277 14.3385L10.1523 14.1467ZM11.2051 14.9198L11.7328 14.9048C11.7352 15.1158 11.7952 15.285 11.9128 15.4123C12.0323 15.5399 12.2112 15.619 12.4495 15.6496C12.6897 15.6804 12.8741 15.6548 13.0028 15.5729C13.1317 15.489 13.2046 15.3812 13.2215 15.2495C13.2367 15.1313 13.1973 15.0317 13.1033 14.9507C13.0376 14.895 12.8669 14.8131 12.5914 14.7049C12.2202 14.5588 11.9645 14.4413 11.8243 14.3524C11.6863 14.2618 11.5865 14.1496 11.5249 14.0156C11.4655 13.88 11.4455 13.7367 11.4649 13.5856C11.4826 13.448 11.5298 13.3251 11.6068 13.2168C11.6858 13.1069 11.7846 13.0201 11.903 12.9565C11.9921 12.9069 12.109 12.8707 12.2537 12.8479C12.4006 12.8235 12.5544 12.8216 12.7152 12.8422C12.9574 12.8733 13.165 12.9354 13.3382 13.0285C13.5133 13.1218 13.6367 13.2342 13.7084 13.3654C13.7805 13.4948 13.8201 13.6614 13.8274 13.8651L13.3071 13.8692C13.3042 13.7074 13.2523 13.5747 13.1514 13.4712C13.0524 13.3679 12.9012 13.3032 12.6978 13.2771C12.4576 13.2463 12.281 13.264 12.1682 13.3302C12.0553 13.3965 11.992 13.4829 11.9784 13.5894C11.9697 13.6572 11.9831 13.721 12.0188 13.7807C12.0542 13.8424 12.1151 13.8974 12.2014 13.9459C12.2512 13.972 12.3995 14.0363 12.6463 14.1389C13.0036 14.2852 13.2508 14.3996 13.3879 14.4822C13.5272 14.5631 13.6308 14.6689 13.6987 14.7997C13.7665 14.9305 13.789 15.085 13.7662 15.2632C13.7438 15.4376 13.6713 15.5957 13.5488 15.7375C13.4284 15.8776 13.2668 15.9779 13.0641 16.0386C12.8616 16.0973 12.6393 16.1111 12.3972 16.08C11.9962 16.0285 11.7008 15.9059 11.511 15.7122C11.3231 15.5188 11.2212 15.2546 11.2051 14.9198ZM15.4737 15.9284L15.49 16.4001C15.3388 16.4122 15.205 16.4108 15.0888 16.3959C14.899 16.3715 14.7556 16.3226 14.6587 16.2491C14.5618 16.1756 14.4982 16.0877 14.468 15.9854C14.4381 15.8811 14.4433 15.6721 14.4835 15.3583L14.7114 13.5828L14.3278 13.5335L14.38 13.1267L14.7636 13.176L14.8617 12.4117L15.4221 12.1646L15.2838 13.2427L15.8097 13.3102L15.7575 13.717L15.2315 13.6495L15 15.4541C14.9808 15.6032 14.9772 15.7002 14.9892 15.7451C15.0031 15.7902 15.0288 15.828 15.0662 15.8584C15.1056 15.889 15.1641 15.9093 15.2415 15.9193C15.2997 15.9267 15.3771 15.9298 15.4737 15.9284ZM18.1681 15.7395L18.7 15.8757C18.5743 16.1806 18.3849 16.4054 18.132 16.5501C17.8791 16.6949 17.5735 16.7443 17.2151 16.6983C16.7637 16.6404 16.4231 16.4559 16.1932 16.1448C15.9656 15.832 15.8839 15.4247 15.9483 14.923C16.015 14.4038 16.2003 14.018 16.5045 13.7656C16.8086 13.5132 17.1738 13.4144 17.6 13.4691C18.0126 13.522 18.3316 13.7057 18.5571 14.0202C18.7826 14.3346 18.8626 14.7466 18.7973 15.2561C18.7933 15.2871 18.7863 15.3335 18.7765 15.3952L16.475 15.0999C16.4509 15.4414 16.5135 15.7133 16.6628 15.9156C16.812 16.1179 17.0155 16.2355 17.2732 16.2686C17.465 16.2932 17.6351 16.2638 17.7837 16.1805C17.9322 16.0972 18.0603 15.9502 18.1681 15.7395ZM16.5593 14.6735L18.2824 14.8947C18.2925 14.6321 18.2516 14.429 18.1598 14.2852C18.0191 14.0624 17.816 13.9339 17.5506 13.8999C17.3104 13.869 17.0976 13.9235 16.9123 14.0631C16.7289 14.203 16.6113 14.4065 16.5593 14.6735ZM19.2349 16.8866L19.6309 13.8006L20.1017 13.861L20.0416 14.3288C20.1898 14.1254 20.3188 13.9952 20.4285 13.9384C20.5401 13.8818 20.6569 13.8614 20.779 13.877C20.9553 13.8997 21.1272 13.9788 21.2949 14.1146L21.0525 14.5767C20.9343 14.4848 20.8113 14.4306 20.6834 14.4142C20.5692 14.3995 20.462 14.4212 20.362 14.4792C20.2623 14.5354 20.1852 14.622 20.1308 14.739C20.0488 14.9176 19.9936 15.1172 19.9653 15.3381L19.7579 16.9537L19.2349 16.8866ZM24.5205 16.0467L25.066 16.2615C24.8884 16.7093 24.6299 17.0355 24.2906 17.2401C23.9534 17.4429 23.563 17.5159 23.1194 17.459C22.6603 17.4 22.2983 17.2591 22.0335 17.0361C21.7709 16.8114 21.5868 16.512 21.4812 16.1381C21.3776 15.7645 21.3518 15.3742 21.404 14.9674C21.461 14.5238 21.5948 14.1481 21.8056 13.8404C22.0186 13.531 22.292 13.3111 22.6258 13.1807C22.9618 13.0485 23.3176 13.0066 23.6935 13.0548C24.1197 13.1095 24.4641 13.264 24.7269 13.5182C24.9896 13.7725 25.1529 14.1036 25.2167 14.5115L24.6449 14.5711C24.5859 14.2484 24.4715 14.0043 24.3017 13.8388C24.132 13.6733 23.9047 13.5722 23.6199 13.5357C23.2925 13.4937 23.0084 13.537 22.7674 13.6655C22.5283 13.7944 22.3472 13.9857 22.224 14.2397C22.1011 14.4917 22.0216 14.7582 21.9856 15.0391C21.9391 15.4014 21.9508 15.7248 22.0206 16.0095C22.0926 16.2924 22.2314 16.515 22.437 16.6773C22.6426 16.8395 22.8752 16.9373 23.1348 16.9706C23.4506 17.0112 23.7296 16.9544 23.9719 16.8004C24.2142 16.6464 24.397 16.3952 24.5205 16.0467ZM27.5858 17.5714C27.3709 17.7112 27.169 17.8034 26.9802 17.8481C26.7933 17.893 26.5971 17.9023 26.3918 17.876C26.0528 17.8325 25.8028 17.7167 25.6418 17.5287C25.4811 17.3387 25.4172 17.1149 25.4503 16.8572C25.4697 16.7061 25.5213 16.5729 25.605 16.4576C25.6909 16.3407 25.7939 16.2515 25.914 16.1901C26.0361 16.129 26.1693 16.088 26.3138 16.0671C26.4199 16.0532 26.5783 16.0469 26.7888 16.0484C27.2176 16.0522 27.5362 16.032 27.7447 15.9879C27.7558 15.9165 27.7626 15.8711 27.7651 15.8517C27.7925 15.6386 27.7623 15.4821 27.6747 15.3823C27.5562 15.2469 27.3652 15.1624 27.1018 15.1286C26.8557 15.097 26.668 15.1172 26.5387 15.1892C26.4115 15.2595 26.3058 15.4006 26.2215 15.6122L25.719 15.4769C25.7936 15.2639 25.8928 15.0975 26.0165 14.9775C26.1404 14.8555 26.3077 14.7717 26.5184 14.7258C26.7293 14.6781 26.9675 14.6712 27.2329 14.7053C27.4963 14.7391 27.7064 14.7976 27.8631 14.8807C28.0198 14.9638 28.1309 15.0578 28.1962 15.1627C28.2617 15.2656 28.3008 15.3907 28.3134 15.5381C28.3194 15.6294 28.3075 15.7913 28.2776 16.0238L28.1881 16.7212C28.1257 17.2075 28.0969 17.5168 28.1015 17.6494C28.1084 17.7802 28.1371 17.9089 28.1878 18.0356L27.6415 17.9655C27.6012 17.85 27.5826 17.7187 27.5858 17.5714ZM27.6921 16.3976C27.4923 16.4508 27.1991 16.4801 26.8124 16.4856C26.5934 16.489 26.4368 16.5043 26.3428 16.5316C26.2487 16.559 26.1726 16.6073 26.1144 16.6766C26.0566 16.744 26.0218 16.8232 26.0101 16.9143C25.9922 17.0538 26.0296 17.1767 26.1223 17.2831C26.2169 17.3898 26.3659 17.4562 26.5693 17.4823C26.7708 17.5081 26.9556 17.4875 27.1237 17.4205C27.292 17.3515 27.4228 17.2452 27.5161 17.1017C27.5874 16.9907 27.6379 16.8199 27.6675 16.5894L27.6921 16.3976ZM28.83 18.118L29.2261 15.032L29.6968 15.0924L29.6368 15.5602C29.785 15.3567 29.9139 15.2266 30.0236 15.1698C30.1352 15.1132 30.2521 15.0928 30.3741 15.1084C30.5504 15.131 30.7224 15.2102 30.8901 15.3459L30.6476 15.8081C30.5295 15.7161 30.4064 15.662 30.2786 15.6455C30.1643 15.6309 30.0571 15.6526 29.9571 15.7106C29.8574 15.7667 29.7803 15.8533 29.7259 15.9704C29.6439 16.1489 29.5888 16.3486 29.5604 16.5695L29.3531 18.1851L28.83 18.118ZM32.8198 18.63L32.8697 18.2406C32.6348 18.5216 32.3275 18.6377 31.9478 18.589C31.7017 18.5574 31.4838 18.4605 31.2939 18.2983C31.106 18.1364 30.9704 17.927 30.8872 17.6701C30.8061 17.4116 30.7859 17.1245 30.8264 16.8087C30.8659 16.5007 30.9531 16.2283 31.0878 15.9916C31.2228 15.7529 31.4015 15.5799 31.624 15.4726C31.8465 15.3653 32.0847 15.3279 32.3385 15.3605C32.5244 15.3844 32.685 15.4453 32.8201 15.5434C32.9554 15.6396 33.0605 15.7564 33.1354 15.894L33.3316 14.3655L33.8517 14.4323L33.305 18.6923L32.8198 18.63ZM31.364 16.8777C31.3133 17.2729 31.3586 17.579 31.5001 17.7961C31.6416 18.0131 31.8257 18.1362 32.0524 18.1653C32.281 18.1946 32.4866 18.1265 32.6693 17.9609C32.8542 17.7936 32.9713 17.5182 33.0205 17.1346C33.0747 16.7123 33.0331 16.3919 32.8958 16.1734C32.7584 15.9549 32.5706 15.8304 32.3323 15.7998C32.0998 15.77 31.893 15.8399 31.7117 16.0096C31.5323 16.1796 31.4164 16.469 31.364 16.8777Z" fill="white"/>
</svg>
