<svg width="39" height="26" viewBox="0 0 39 26" fill="none" xmlns="http://www.w3.org/2000/svg">
<g id="Paypal">
<path id="Shape 327" d="M1.79847 0.755127H36.5335C36.9823 0.767182 37.408 0.956141 37.7179 1.28101C38.0278 1.60587 38.1965 2.04015 38.1874 2.48901V24.1619C38.1965 24.6107 38.0278 25.045 37.7179 25.3699C37.408 25.6947 36.9823 25.8837 36.5335 25.8958H1.79847C1.34967 25.8837 0.923776 25.6947 0.613899 25.3699C0.304021 25.045 0.135275 24.6107 0.144416 24.1619V2.48999C0.135008 2.04096 0.303749 1.60658 0.613655 1.28149C0.92356 0.956412 1.3495 0.767181 1.79847 0.755127Z" fill="#F1F1F1"/>
<path id="Shape 327 copy" d="M0.556282 25.3049C0.290665 24.9842 0.146 24.5803 0.147346 24.1638V2.48999C0.137938 2.04096 0.306557 1.60658 0.616462 1.28149C0.926368 0.956412 1.35231 0.767181 1.80128 0.755127H36.5353C36.957 0.756073 37.3613 0.922587 37.6613 1.21899L0.561287 25.3049H0.556282Z" fill="white" fill-opacity="0.73"/>
<path id="Shape 335" d="M14.7927 18.72L16.0927 16.3699L15.3687 10.7259H17.1396L17.4257 14.0662L19.1587 10.7259H20.9867L16.7777 18.72H14.7927ZM9.23962 14.5042C9.51262 13.1302 10.8396 12.6942 12.8016 12.6942C12.9186 12.0832 12.5297 11.93 11.8677 11.953C11.284 11.9812 10.7102 12.1144 10.1737 12.346L10.3286 10.973C10.9728 10.7728 11.6399 10.6554 12.3137 10.6239C13.5397 10.6019 14.9027 10.9933 14.5917 12.5863L13.8326 16.3363H12.0616L12.1776 15.7679C11.9721 15.98 11.7263 16.1494 11.4547 16.2655C11.1831 16.3815 10.8911 16.4422 10.5957 16.4442C9.7567 16.4402 9.00972 15.8938 9.24072 14.4998L9.23962 14.5042ZM11.0507 14.4168C10.9949 14.4958 10.9633 14.5893 10.9595 14.6859C10.9557 14.7824 10.98 14.8782 11.0294 14.9613C11.0788 15.0443 11.1511 15.1114 11.2378 15.1541C11.3245 15.1969 11.4217 15.2133 11.5177 15.202C11.7368 15.2117 11.952 15.142 12.1238 15.0057C12.2956 14.8694 12.4124 14.6759 12.4526 14.4603C12.4758 14.2917 12.5092 14.1248 12.5526 13.9603H12.1046C11.9051 13.9418 11.7041 13.9734 11.52 14.0526C11.3359 14.1317 11.1745 14.2554 11.0507 14.4129V14.4168ZM3.13965 16.3363L4.60364 9.16389H7.91064C8.20544 9.16128 8.4966 9.2295 8.75964 9.36262C9.02269 9.49574 9.25 9.68994 9.42249 9.92903C9.59497 10.1681 9.70762 10.445 9.75098 10.7366C9.79434 11.0282 9.76709 11.3259 9.67163 11.6048C9.57645 12.2607 9.24769 12.8601 8.74573 13.2928C8.24376 13.7255 7.60241 13.9628 6.9397 13.9603H5.55664L5.08167 16.3363H3.13965ZM5.83264 12.5863H6.74268C7.00887 12.565 7.26092 12.4575 7.46094 12.2806C7.66096 12.1037 7.79812 11.8664 7.85168 11.6048C7.89366 11.4972 7.90906 11.3813 7.89661 11.2664C7.88415 11.1516 7.84422 11.0413 7.78015 10.9451C7.71608 10.849 7.62978 10.7699 7.52856 10.7142C7.42735 10.6585 7.31412 10.6275 7.19861 10.6248H6.24866L5.83264 12.5863Z" fill="#3284AE"/>
<path id="Shape 335_2" d="M26.4564 14.4998C26.7324 13.1258 28.0734 12.6912 30.0624 12.6912C30.2004 12.0792 29.8065 11.928 29.1365 11.95C28.5403 11.9806 27.9538 12.1133 27.4025 12.342L27.5604 10.969C28.2202 10.7713 28.9016 10.6543 29.5895 10.6208C30.8305 10.5988 32.1894 10.9898 31.8744 12.5818L31.1064 16.3308H29.3334L29.4514 15.7649C29.0218 16.194 28.4406 16.4371 27.8334 16.4412C26.9754 16.4402 26.2194 15.8948 26.4564 14.4998ZM28.2894 14.4128C28.2355 14.4944 28.2062 14.59 28.2051 14.6877C28.2039 14.7855 28.2311 14.8813 28.2831 14.9641C28.3351 15.0469 28.4097 15.1131 28.4983 15.1545C28.5869 15.196 28.6856 15.2111 28.7825 15.198C29.0003 15.2077 29.2141 15.1378 29.3844 15.0017C29.5547 14.8656 29.6698 14.6723 29.7084 14.4578C29.7474 14.2828 29.7675 14.1298 29.8085 13.9578H29.3754C29.1704 13.937 28.9636 13.9679 28.7734 14.0471C28.5833 14.1264 28.4159 14.2517 28.2864 14.4119L28.2894 14.4128ZM31.9254 16.3308L33.3915 9.13696H35.2114L33.7264 16.3308H31.9254ZM20.3564 16.3308L21.8185 9.15991H25.1184C25.4124 9.15912 25.7023 9.2284 25.9641 9.36206C26.2259 9.49572 26.4521 9.68992 26.6239 9.92847C26.7957 10.167 26.908 10.443 26.9518 10.7336C26.9955 11.0243 26.9693 11.3213 26.8754 11.5999C26.7801 12.258 26.4494 12.8592 25.9447 13.2922C25.44 13.7253 24.7954 13.9607 24.1304 13.9548H22.7675L22.2734 16.3298L20.3564 16.3308ZM23.0435 12.5818H23.9314C24.1997 12.5611 24.4543 12.4548 24.6573 12.2781C24.8604 12.1014 25.001 11.8638 25.0585 11.6008C25.0983 11.4917 25.1114 11.3748 25.0969 11.2595C25.0824 11.1443 25.0406 11.0341 24.975 10.9382C24.9094 10.8424 24.8218 10.7639 24.7196 10.7087C24.6174 10.6535 24.5036 10.6232 24.3875 10.6208H23.4395L23.0435 12.5818Z" fill="#3CA9C7"/>
</g>
</svg>
