<svg width="70" height="79" viewBox="0 0 70 79" fill="none" xmlns="http://www.w3.org/2000/svg">
<g id="refund">
<g id="Group 12">
<g id="Group 11">
<path id="Path 1" d="M56.1378 17.1091L52.3662 21.9531C57.7122 26.0969 61.3965 32.0193 62.7508 38.6463C64.1052 45.2734 63.04 52.1664 59.7484 58.0755C56.4569 63.9846 51.1568 68.5187 44.8093 70.8555C38.4617 73.1924 31.4869 73.1773 25.1495 70.8131C18.8121 68.4489 13.5317 63.892 10.2657 57.9687C6.99961 52.0455 5.9642 45.1479 7.34714 38.5268C8.73009 31.9056 12.4398 25.9992 17.8037 21.8785C23.1677 17.7577 29.8306 15.6954 36.5845 16.0656L31.2779 21.6325L35.2142 25.389L43.5909 16.5886L47.3436 12.6473L43.4136 8.90582L34.6195 0.527832L30.8643 4.46916L36.5921 9.92541C27.8066 9.52535 19.2016 12.5055 12.5453 18.2534C5.88905 24.0014 1.68719 32.0805 0.803205 40.8306C-0.0807806 49.5806 2.42026 58.3369 7.79236 65.3C13.1645 72.2631 20.9995 76.9042 29.6875 78.2694C31.4802 78.5527 33.2924 78.6952 35.1073 78.6956C42.2724 78.6777 49.2533 76.4238 55.0761 72.2483C60.8988 68.0728 65.273 62.1839 67.5885 55.4032C69.904 48.6225 70.0452 41.2882 67.9925 34.4233C65.9398 27.5585 61.7955 21.5056 56.1378 17.1091Z" fill="#FF6875"/>
<path id="Path 2" d="M38.4038 61.8326V58.2998C42.5928 57.8322 46.6674 55.187 46.6674 50.1632C46.6674 43.3379 40.3211 42.5559 35.6858 41.9851C32.7225 41.6306 30.4533 41.2195 30.4533 39.4242C30.4533 36.9274 33.9734 36.6584 35.4821 36.6584C37.7274 36.6584 40.1237 37.7144 40.9383 39.0609L41.1747 39.4531L45.8263 37.2983L45.5963 36.8294C44.9059 35.4644 43.8857 34.2933 42.6282 33.4224C41.3707 32.5515 39.9156 32.0083 38.395 31.842V28.7305H32.9513V31.827C27.876 32.5813 24.8612 35.3924 24.8612 39.423C24.8612 45.9944 30.8279 46.6607 35.1816 47.1497C39.0613 47.6073 40.8667 48.5653 40.8667 50.167C40.8667 53.2182 36.6412 53.4558 35.3463 53.4558C32.4635 53.4558 29.6889 52.0176 28.8793 50.1067L28.6794 49.6352L23.6279 51.7762L23.8291 52.2477C25.3264 55.754 28.5587 57.9503 32.9576 58.4696V61.8326H38.4038Z" fill="#FF6875"/>
</g>
</g>
</g>
</svg>
