<svg width="69" height="90" viewBox="0 0 69 90" fill="none" xmlns="http://www.w3.org/2000/svg">
<g id="support">
<path id="Path 3" d="M0.577148 70.8009V89.366H68.2448V70.8009C68.2421 68.7311 67.4187 66.7468 65.9551 65.2833C64.4916 63.8197 62.5073 62.9963 60.4375 62.9937H8.38437C6.31458 62.9963 4.33033 63.8197 2.86677 65.2833C1.40321 66.7468 0.57981 68.7311 0.577148 70.8009H0.577148ZM5.78196 70.8009C5.78296 70.111 6.05746 69.4496 6.54529 68.9618C7.03312 68.474 7.69447 68.1995 8.38437 68.1985H10.9868V84.1649H5.78196V70.8009ZM16.1928 68.1985H22.9226L34.411 79.6868L45.8993 68.1985H52.6253V84.1649H16.1928V68.1985ZM63.0399 70.8009V84.1612H57.8351V68.1947H60.4375C61.1281 68.1957 61.79 68.4707 62.2779 68.9594C62.7659 69.448 63.0399 70.1103 63.0399 70.8009ZM38.5383 68.1985L34.411 72.3259L30.2836 68.1985H38.5383Z" fill="#FF6875"/>
<path id="Path 4" d="M53.8825 52.5791H57.8389V47.3743H60.4413C62.5111 47.3716 64.4953 46.5482 65.9589 45.0847C67.4225 43.6211 68.2459 41.6369 68.2485 39.5671V34.3623C68.2482 25.3885 64.6831 16.7824 58.3374 10.4372C51.9917 4.092 43.3854 0.527499 34.4116 0.527832C25.4378 0.528165 16.8317 4.09331 10.4865 10.439C4.14132 16.7846 0.576815 25.391 0.577148 34.3648L0.577148 39.5696C0.57981 41.6394 1.40321 43.6236 2.86677 45.0872C4.33033 46.5508 6.31458 47.3741 8.38437 47.3768H12.327C13.7744 51.476 16.3343 55.0913 19.7202 57.8179C23.1061 60.5445 27.1842 62.2747 31.4977 62.8147C35.8113 63.3547 40.19 62.6832 44.1435 60.8754C48.097 59.0677 51.4692 56.195 53.8825 52.5791ZM60.4413 42.1682H57.688C57.7849 41.3041 57.8336 40.4353 57.8339 39.5658V34.361C57.8336 33.4915 57.7849 32.6227 57.688 31.7586H60.4363C61.1262 31.7596 61.7875 32.0341 62.2754 32.5219C62.7632 33.0098 63.0377 33.6711 63.0387 34.361V39.5658C63.039 40.2566 62.7651 40.9192 62.2771 41.4081C61.7892 41.8971 61.127 42.1723 60.4363 42.1733L60.4413 42.1682ZM34.411 5.73579C40.6687 5.74384 46.752 7.79839 51.7332 11.5861C56.7144 15.3738 60.32 20.6868 62.0002 26.7147C61.4859 26.61 60.9624 26.5573 60.4375 26.5576H56.4937C54.8791 21.9908 51.8885 18.0369 47.9336 15.2404C43.9787 12.4439 39.2541 10.9422 34.4103 10.9422C29.5666 10.9422 24.842 12.4439 20.8871 15.2404C16.9322 18.0369 13.9415 21.9908 12.327 26.5576H8.38437C7.85951 26.5573 7.33597 26.61 6.82167 26.7147C8.50185 20.6868 12.1075 15.3738 17.0887 11.5861C22.0699 7.79839 28.1532 5.74384 34.411 5.73579ZM49.3566 23.9602C47.6738 26.3641 45.4375 28.3279 42.8362 29.6858C40.235 31.0437 37.3453 31.756 34.411 31.7624H16.3789C16.9 28.1438 18.498 24.7659 20.9651 22.068C23.4322 19.3701 26.6542 17.4772 30.2118 16.6355C33.7695 15.7938 37.4981 16.0423 40.9125 17.3486C44.327 18.655 47.2693 20.9588 49.3566 23.9602ZM8.38437 42.1733C7.69447 42.1723 7.03312 41.8978 6.54529 41.4099C6.05746 40.9221 5.78296 40.2607 5.78196 39.5708V34.366C5.78296 33.6761 6.05746 33.0148 6.54529 32.527C7.03312 32.0391 7.69447 31.7646 8.38437 31.7636H11.1376C11.0407 32.6277 10.9921 33.4965 10.9918 34.366V39.5708C10.9921 40.4403 11.0407 41.3092 11.1376 42.1733H8.38437ZM16.1916 39.5708V36.9684H34.411C37.7064 36.9623 40.9638 36.2635 43.9717 34.9172C46.9796 33.5709 49.6709 31.6072 51.871 29.1537C52.3767 30.8444 52.633 32.6 52.6316 34.3648V39.5696C52.6344 42.2707 52.033 44.9382 50.8715 47.3768H42.2182L39.9276 45.0912C38.4632 46.5553 36.4773 47.3778 34.4066 47.3778C32.3358 47.3778 30.3499 46.5553 28.8856 45.0912L25.2057 48.771C27.4206 50.9859 30.36 52.3275 33.4844 52.5496C36.6088 52.7718 39.7084 51.8596 42.2144 49.9805V52.5791H47.1426C44.5814 55.0882 41.3363 56.7852 37.8144 57.4574C34.2925 58.1295 30.6506 57.7469 27.3453 56.3576C24.0399 54.9682 21.2184 52.6339 19.2344 49.6474C17.2504 46.6609 16.1923 43.155 16.1928 39.5696L16.1916 39.5708Z" fill="#FF6875"/>
</g>
</svg>
