<svg width="15" height="13" viewBox="0 0 15 13" fill="none" xmlns="http://www.w3.org/2000/svg">
<path id="twitter" d="M14.7502 1.83314C14.1999 2.07326 13.618 2.2329 13.0222 2.30714C13.6503 1.93467 14.12 1.34474 14.3422 0.649139C13.7548 0.997506 13.1122 1.24304 12.4422 1.37514C12.031 0.935099 11.4969 0.628995 10.9094 0.496661C10.3219 0.364327 9.7081 0.411888 9.14798 0.633155C8.58785 0.854422 8.10729 1.23915 7.76881 1.73728C7.43034 2.23542 7.24963 2.82389 7.25019 3.42614C7.24799 3.65603 7.27147 3.88545 7.32019 4.11014C6.12681 4.05155 4.95923 3.74176 3.89378 3.20102C2.82833 2.66028 1.889 1.90077 1.13719 0.97214C0.751084 1.63204 0.631499 2.41445 0.802859 3.15955C0.974219 3.90465 1.42359 4.55621 2.05919 4.98114C1.58447 4.96854 1.11974 4.84198 0.704188 4.61214V4.64514C0.70483 5.33741 0.943761 6.00836 1.38082 6.54521C1.81788 7.08207 2.42643 7.45211 3.10419 7.59314C2.84745 7.66123 2.5828 7.69486 2.31719 7.69314C2.12657 7.6966 1.93614 7.67951 1.74919 7.64214C1.94279 8.2371 2.31594 8.75748 2.81733 9.13173C3.31872 9.50599 3.92374 9.71573 4.54919 9.73214C3.48858 10.5608 2.18115 11.0107 0.835187 11.0101C0.595224 11.0118 0.3554 10.9981 0.117188 10.9691C1.48835 11.8526 3.08604 12.3201 4.71719 12.3151C5.84043 12.323 6.95404 12.1076 7.99333 11.6814C9.03262 11.2552 9.97687 10.6268 10.7712 9.83261C11.5656 9.03843 12.1943 8.09432 12.6207 7.05513C13.0471 6.01594 13.2628 4.90239 13.2552 3.77914C13.2552 3.64614 13.2552 3.51814 13.2442 3.39114C13.8368 2.96778 14.3472 2.43979 14.7502 1.83314Z" fill="#03A9F4"/>
</svg>
